<svg xmlns="http://www.w3.org/2000/svg" width="1920" height="1080" viewBox="0 0 1920 1080" data-surface-ids="agent-drawer,exception-inbox,recovery-center">
 <rect width="1920" height="1080" fill="#0B1220"/><text x="40" y="62" fill="#F7F9FC" font-size="16">Agent · Exception · Recovery · STATIC_ONLY · AV-AGT-029</text><text x="40" y="90" fill="#B8C4D8" font-size="12">RUNTIME_DEFERRED / NOT_EXECUTED · actual DIR NOT_EXECUTED</text>
 <g fill="#142033"><rect x="32" y="128" width="590" height="896" rx="12"/><rect x="652" y="128" width="590" height="896" rx="12"/><rect x="1272" y="128" width="616" height="896" rx="12"/></g>
 <g fill="#7DB4FF" font-size="14"><text x="56" y="170">Agent Drawer</text><text x="676" y="170">Exception Inbox</text><text x="1296" y="170">Recovery Center</text></g>
 <g fill="#F7F9FC" font-size="12"><text x="56" y="220">role · scope · permissions</text><text x="56" y="252">model · token · cost</text><text x="56" y="284">heartbeat HEALTHY</text><text x="56" y="316">worker + write lease (masked)</text><text x="56" y="348">authorized stop · reason</text><text x="676" y="220">VALID_FAILURE_REPORT · 2/3</text><text x="676" y="252">same lineage + fingerprint</text><text x="676" y="284">quota is not valid failure</text><text x="676" y="316">dependents blocked</text><text x="1296" y="220">checkpoint/hash/event</text><text x="1296" y="252">workspace/lease reconcile</text><text x="1296" y="284">side effect MANUAL_REVIEW</text><text x="1296" y="316">duplicate execution forbidden</text></g>
 <rect x="56" y="900" width="520" height="70" rx="8" fill="#1B2A42"/><text x="78" y="942" fill="#FF7B86" font-size="12">Stop blocks new action · next_action visible</text>
 <rect x="1296" y="900" width="548" height="70" rx="8" fill="#1B2A42"/><text x="1318" y="942" fill="#5EE3A1" font-size="12">SAFE_RESUME only after reconciliation</text>
</svg>
